<svg width="35" height="30" viewBox="0 0 49 55" fill="none" xmlns="http://www.w3.org/2000/svg">
<path d="M1.28538 46.36H11.7494V14.968L6.75738 17.848L0.901375 9.4L15.8774 0.663996H24.2294V46.36H31.6214L32.6774 55H2.24538L1.28538 46.36ZM41.9234 40.984C43.9074 40.984 45.5394 41.656 46.8194 43C48.1634 44.344 48.8354 46.008 48.8354 47.992C48.8354 49.976 48.1634 51.64 46.8194 52.984C45.5394 54.328 43.9074 55 41.9234 55C39.9394 55 38.2434 54.328 36.8354 52.984C35.4914 51.64 34.8194 49.976 34.8194 47.992C34.8194 46.008 35.4914 44.344 36.8354 43C38.2434 41.656 39.9394 40.984 41.9234 40.984Z" fill="#EC407A"/>
</svg>
